<svg xmlns="http://www.w3.org/2000/svg" xmlns:xlink="http://www.w3.org/1999/xlink" viewBox="1537 68.572 309.828 309.828"><defs><style>.a{fill:#715497;}.b{fill:url(#c);}.c{fill:#fff;}.d{filter:url(#a);}</style><filter id="a" x="1537" y="68.572" width="309.828" height="309.828" filterUnits="userSpaceOnUse"><feOffset dy="8" input="SourceAlpha"/><feGaussianBlur stdDeviation="4" result="b"/><feFlood flood-opacity="0.322"/><feComposite operator="in" in2="b"/><feComposite in="SourceGraphic"/></filter><linearGradient id="c" x1="0.5" y1="1" x2="0.5" gradientUnits="objectBoundingBox"><stop offset="0" stop-color="#fff" stop-opacity="0"/><stop offset="0.23" stop-color="#fff" stop-opacity="0.012"/><stop offset="0.36" stop-color="#fff" stop-opacity="0.039"/><stop offset="0.47" stop-color="#fff" stop-opacity="0.102"/><stop offset="0.57" stop-color="#fff" stop-opacity="0.18"/><stop offset="0.67" stop-color="#fff" stop-opacity="0.278"/><stop offset="0.75" stop-color="#fff" stop-opacity="0.412"/><stop offset="0.83" stop-color="#fff" stop-opacity="0.561"/><stop offset="0.91" stop-color="#fff" stop-opacity="0.741"/><stop offset="0.98" stop-color="#fff" stop-opacity="0.929"/><stop offset="1" stop-color="#fff"/></linearGradient></defs><g transform="translate(1367 -185)"><g transform="translate(-35 51)"><g transform="translate(217 206)"><g class="d" transform="matrix(1, 0, 0, 1, -1549, -72)"><circle class="a" cx="142.914" cy="142.914" r="142.914" transform="translate(1549 72.57)"/></g><path class="b" d="M3545.913,961.552a140.362,140.362,0,1,1-140.361,140.362,140.363,140.363,0,0,1,140.361-140.362m0-2.552a142.914,142.914,0,1,0,142.916,142.914A142.914,142.914,0,0,0,3545.913,959Z" transform="translate(-3402.449 -959)"/></g><path class="c" d="M377.924,124.149H372.6l-1.995-1.995a41.623,41.623,0,0,0,10.64-27.93,43.225,43.225,0,1,0-43.225,43.225,41.623,41.623,0,0,0,27.93-10.64l1.995,1.995v5.32l33.25,33.25,9.975-9.975Zm-39.9,0a29.925,29.925,0,1,1,29.925-29.925A29.8,29.8,0,0,1,338.024,124.149Z" transform="translate(7.423 238.754)"/></g></g></svg>